<svg width="54" height="54" viewBox="0 0 54 54" fill="none" xmlns="http://www.w3.org/2000/svg">
<path fill-rule="evenodd" clip-rule="evenodd" d="M39.2442 40H1.21987L14.794 16.9909V36H17.121L17.485 33.244C17.6237 33.6687 17.8533 34.115 18.174 34.583C18.4947 35.051 18.954 35.4497 19.552 35.779C20.15 36.0997 20.93 36.26 21.892 36.26C23.7727 36.26 25.194 35.6187 26.156 34.336C27.118 33.0447 27.599 31.3373 27.599 29.214C27.599 26.978 27.1137 25.2663 26.143 24.079C25.1723 22.8917 23.8507 22.298 22.178 22.298C21.0687 22.298 20.1587 22.5407 19.448 23.026C18.7373 23.5113 18.2433 24.0097 17.966 24.521V16.682H14.9763L15.9685 15H54L39.2442 40ZM0 40V39.7178L0.166484 40H0ZM23.569 32.815C22.9623 33.5603 22.1867 33.933 21.242 33.933C20.1067 33.933 19.2747 33.5647 18.746 32.828C18.226 32.0827 17.966 30.852 17.966 29.136C17.9833 27.6713 18.2477 26.5577 18.759 25.795C19.2703 25.0323 20.085 24.651 21.203 24.651C22.243 24.651 23.049 25.028 23.621 25.782C24.193 26.536 24.479 27.654 24.479 29.136C24.479 30.8347 24.1757 32.061 23.569 32.815ZM38.7552 22.935C37.9579 22.5103 37.0349 22.298 35.9862 22.298C34.6689 22.298 33.5336 22.597 32.5802 23.195C31.6356 23.7843 30.9076 24.6077 30.3962 25.665C29.8849 26.7137 29.6292 27.9357 29.6292 29.331C29.6292 30.7957 29.9022 32.048 30.4482 33.088C30.9942 34.1193 31.7439 34.908 32.6972 35.454C33.6592 35.9913 34.7556 36.26 35.9862 36.26C37.0176 36.26 37.9319 36.0607 38.7292 35.662C39.5266 35.2547 40.1636 34.7 40.6402 33.998C41.1256 33.2873 41.4116 32.4727 41.4982 31.554H38.8722C38.8029 31.9267 38.6512 32.2993 38.4172 32.672C38.1919 33.036 37.8799 33.3437 37.4812 33.595C37.0912 33.8377 36.6189 33.959 36.0642 33.959C34.9549 33.959 34.1012 33.5387 33.5032 32.698C32.9052 31.8573 32.6062 30.7263 32.6062 29.305C32.6062 27.771 32.9182 26.6313 33.5422 25.886C34.1749 25.132 34.9939 24.755 35.9992 24.755C36.8486 24.755 37.5072 25.0063 37.9752 25.509C38.4519 26.003 38.7379 26.5533 38.8332 27.16H41.5372C41.4419 26.224 41.1516 25.392 40.6662 24.664C40.1896 23.9273 39.5526 23.351 38.7552 22.935Z" fill="#333333"/>
</svg>
