<svg width="35" height="35" viewBox="0 0 35 35" fill="none" xmlns="http://www.w3.org/2000/svg">
<g clip-path="url(#clip0)">
<path d="M30.1615 34.5836H23.2057L23.2254 22.9098H27.0545C27.6534 22.9098 28.1478 22.455 28.2166 21.8649L28.6861 17.8333C28.7672 17.1378 28.2326 16.5114 27.5241 16.5114H23.205V13.5556C23.205 12.8078 23.3123 12.2945 23.5874 11.9619C23.8476 11.6475 24.3408 11.4007 25.3609 11.4007H25.3611L27.3568 11.3998H27.3568C28.0095 11.3994 28.5263 10.8629 28.5263 10.2164V6.81695C28.5263 6.1702 28.0091 5.63356 27.3562 5.63356H24.1042C22.036 5.63356 20.2519 6.27748 18.9844 7.55232C17.7165 8.82757 17.0112 10.6881 17.0112 13.0325V16.5114H14.2405C13.5857 16.5114 13.0679 17.0508 13.0704 17.6992L13.0857 21.7308C13.0881 22.3757 13.6045 22.9096 14.2558 22.9096H17.0316L17.0118 34.5834H5.03618C2.71335 34.5834 0.818034 32.6653 0.818034 30.2837V4.71636C0.818034 2.33479 2.71343 0.416667 5.03618 0.416667H30.1614C32.4842 0.416667 34.3795 2.33479 34.3796 4.71636V30.284C34.3796 32.6655 32.4843 34.5836 30.1615 34.5836Z" stroke="#333333" stroke-width="0.833333"/>
</g>
<defs>
<clipPath id="clip0">
<rect width="34.3949" height="35" fill="white" transform="translate(0.401367)"/>
</clipPath>
</defs>
</svg>
