<svg width="36" height="35" viewBox="0 0 36 35" fill="none" xmlns="http://www.w3.org/2000/svg">
<path d="M11.0487 0.416667H24.9507C30.3636 0.416667 34.7804 4.90063 34.7805 10.4267V24.5733C34.7805 30.0994 30.3637 34.5833 24.9507 34.5833H11.0487C5.63571 34.5833 1.21891 30.0994 1.21891 24.5733V10.4267C1.21891 4.90063 5.63571 0.416667 11.0487 0.416667ZM24.9507 31.8957C28.9356 31.8957 32.1537 28.6104 32.1537 24.5733V10.4267C32.1537 6.38951 28.9356 3.10433 24.9507 3.10433H11.0487C7.0638 3.10433 3.8457 6.38951 3.8457 10.4267V24.5733C3.8457 28.6104 7.06379 31.8957 11.0487 31.8957H24.9507Z" stroke="#333333" stroke-width="0.833333"/>
<path d="M9.52067 17.4999C9.52067 12.7318 13.3316 8.86442 17.9997 8.86442C22.6679 8.86442 26.4788 12.7318 26.4788 17.4999C26.4788 22.2681 22.6679 26.1355 17.9997 26.1355C13.3316 26.1355 9.52067 22.2681 9.52067 17.4999ZM12.1475 17.5C12.1475 20.7781 14.7608 23.4479 17.9997 23.4479C21.2387 23.4479 23.852 20.778 23.852 17.5C23.852 14.2219 21.2387 11.5521 17.9997 11.5521C14.7608 11.5521 12.1475 14.2219 12.1475 17.5Z" stroke="#333333" stroke-width="0.833333"/>
<path d="M28.6278 8.51578C28.6278 9.49051 27.8532 10.2682 26.9129 10.2682C25.9725 10.2682 25.1979 9.49051 25.1979 8.51578C25.1979 7.54106 25.9725 6.76335 26.9129 6.76335C27.8532 6.76335 28.6278 7.54106 28.6278 8.51578Z" stroke="#333333" stroke-width="0.833333"/>
</svg>
