<svg width="35" height="35" viewBox="0 0 35 35" fill="none" xmlns="http://www.w3.org/2000/svg">
<g clip-path="url(#clip0)">
<path d="M18.6517 22.4677L18.6502 22.4857V22.5038V33.9133C18.6502 34.2904 18.3519 34.5833 17.9994 34.5833H12.8703C12.5179 34.5833 12.2195 34.2903 12.2195 33.9133V12.6335C12.2195 12.2565 12.5179 11.9635 12.8703 11.9635H17.9994C18.3518 11.9635 18.6502 12.2565 18.6502 12.6335V14.4734V15.8707L19.4155 14.7016C19.9953 13.8158 20.7018 13.0519 21.7064 12.5048C22.7126 11.9569 24.0493 11.6096 25.9146 11.6096C27.9695 11.6096 29.4715 12.0972 30.5785 12.8664C31.6868 13.6363 32.4327 14.7116 32.9347 15.943C33.9412 18.4115 33.9411 21.4307 33.9411 23.6631V23.7065V33.9133C33.9411 34.2903 33.6427 34.5833 33.2903 34.5833H27.9871C27.6347 34.5833 27.3363 34.2903 27.3363 33.9133V24.0212C27.3363 23.921 27.3385 23.8001 27.3412 23.6622C27.3568 22.8391 27.3839 21.407 27.0053 20.1172C26.7816 19.3552 26.4077 18.6059 25.7775 18.046C25.1394 17.4792 24.2736 17.138 23.1312 17.138C21.3142 17.138 20.2078 18.104 19.5606 19.2493C18.9261 20.3721 18.7202 21.6798 18.6517 22.4677ZM8.11397 33.8181C8.11397 34.2478 7.77378 34.5833 7.36964 34.5833H2.42758C2.02344 34.5833 1.68325 34.2478 1.68325 33.8181V12.7287C1.68325 12.299 2.02344 11.9635 2.42758 11.9635H7.36964C7.77378 11.9635 8.11397 12.299 8.11397 12.7287V33.8181ZM4.89861 9.14217C2.54275 9.14217 0.62028 7.1959 0.62028 4.77942C0.62028 2.36293 2.54275 0.416667 4.89861 0.416667C7.25447 0.416667 9.17694 2.36293 9.17694 4.77942C9.17694 7.19591 7.25458 9.14217 4.89861 9.14217Z" stroke="#333333" stroke-width="0.833333"/>
</g>
<defs>
<clipPath id="clip0">
<rect width="34.3949" height="35" fill="white" transform="translate(0.203613)"/>
</clipPath>
</defs>
</svg>
