<svg width="54" height="54" viewBox="0 0 54 54" fill="none" xmlns="http://www.w3.org/2000/svg">
<path fill-rule="evenodd" clip-rule="evenodd" d="M2.92593 28.3263C2.33813 29.3018 2 30.4448 2 31.6667C2 32.8886 2.33813 34.0315 2.92593 35.007V28.3263ZM3.92593 36.2771V27.0562C4.18881 26.7964 4.47379 26.559 4.7778 26.3469V36.9864C4.47379 36.7744 4.18881 36.5369 3.92593 36.2771ZM5.7778 37.559C6.05198 37.6851 6.33647 37.7925 6.62965 37.8797V25.4536C6.33647 25.5408 6.05198 25.6483 5.7778 25.7743V37.559ZM7.62965 25.2407V38.0927C7.90841 38.1293 8.19274 38.1481 8.48148 38.1481H8.4815V25.1852C8.4815 25.1852 8.48149 25.1852 8.48148 25.1852C8.19274 25.1852 7.90841 25.2041 7.62965 25.2407ZM9.4815 25.2619V38.1481H10.3334V25.4536C10.0567 25.3713 9.77229 25.3069 9.4815 25.2619ZM11.3334 25.4203V38.1481H12.1852V22.645C11.7576 23.4845 11.4628 24.4219 11.3334 25.4203ZM13.1852 21.1341V38.1481H14.0371V20.2772C13.7328 20.5362 13.4478 20.823 13.1852 21.1341ZM15.0371 19.5677V38.1481H15.8889V19.1515C15.5954 19.2691 15.311 19.4084 15.0371 19.5677ZM16.8889 18.8446V38.1481H17.7408V18.7209C17.4516 18.7425 17.1673 18.7841 16.8889 18.8446ZM18.7408 18.7269V38.1481H19.5926V18.8611C19.3143 18.7971 19.03 18.752 18.7408 18.7269ZM20.5926 19.1818V38.1481H21.4445V19.6115C21.1708 19.4476 20.8864 19.3037 20.5926 19.1818ZM22.4445 18.7658V38.1481H23.2963V17.9644C22.9971 18.2183 22.7128 18.4859 22.4445 18.7658ZM24.2963 17.2036V38.1481H25.1482V16.6739C24.8553 16.8398 24.5711 17.0165 24.2963 17.2036ZM26.1482 16.1656V38.1481H45.0556H45.5185V38.133C49.138 37.8947 52 34.8834 52 31.2037C52 27.3684 48.8909 24.2593 45.0556 24.2593C44.5516 24.2593 44.0602 24.3129 43.5868 24.4149C42.8958 19.115 37.806 15 31.6296 15C29.6554 15 27.7922 15.4204 26.1482 16.1656Z" fill="#333333"/>
</svg>
