<svg width="54" height="54" viewBox="0 0 54 54" fill="none" xmlns="http://www.w3.org/2000/svg">
<path fill-rule="evenodd" clip-rule="evenodd" d="M5 27.5C5 15.0736 15.0736 5 27.5 5C39.9264 5 50 15.0736 50 27.5C50 39.9264 39.9264 50 27.5 50C15.0736 50 5 39.9264 5 27.5ZM35.9625 38.4162C36.4914 38.4161 37.0062 38.1432 37.2923 37.6537C37.721 36.9201 37.474 35.9777 36.7402 35.549C34.6523 34.3288 32.269 33.4588 29.6562 32.9632C27.5934 32.5719 25.3826 32.4118 23.0861 32.4876C19.1874 32.6162 16.3838 33.3777 16.2663 33.41C15.4478 33.6355 14.9675 34.4813 15.1921 35.3001C15.4167 36.1189 16.2631 36.6009 17.082 36.3772C17.1079 36.37 19.7133 35.6687 23.2661 35.5606C26.4733 35.4631 31.1443 35.8428 35.1876 38.2058C35.4317 38.3484 35.6988 38.4162 35.9625 38.4162ZM38.5776 32.616C39.2041 32.6159 39.814 32.2926 40.1528 31.7127C40.6607 30.8438 40.368 29.7275 39.4988 29.2197C37.0257 27.7744 34.2026 26.744 31.1077 26.1568C28.6642 25.6933 26.0456 25.5038 23.3252 25.5934C18.7071 25.7457 15.3861 26.6478 15.247 26.6861C14.2775 26.9533 13.7085 27.955 13.9745 28.925C14.2406 29.8949 15.2433 30.4654 16.2132 30.2007C16.2438 30.1923 19.33 29.3616 23.5384 29.2335C27.3374 29.1181 32.8704 29.5677 37.6597 32.3667C37.9488 32.5357 38.2653 32.616 38.5776 32.616ZM40.7853 26.0052C41.14 26.2125 41.5281 26.311 41.9112 26.311C42.6797 26.311 43.4277 25.9144 43.8434 25.203C44.4663 24.1371 44.1072 22.768 43.0412 22.1451C40.0078 20.3722 36.5448 19.1083 32.7486 18.3881C29.7514 17.8196 26.5395 17.5872 23.2025 17.6971C17.5379 17.8838 13.4644 18.9903 13.2938 19.0373C12.1035 19.3652 11.4044 20.5959 11.7324 21.7862C12.0603 22.9766 13.2909 23.6757 14.4813 23.3477C14.6291 23.3069 29.3991 19.3509 40.7853 26.0052Z" fill="#333333"/>
</svg>
