<svg width="35" height="35" viewBox="0 0 35 35" fill="none" xmlns="http://www.w3.org/2000/svg">
<mask id="path-1-inside-1" fill="white">
<path fill-rule="evenodd" clip-rule="evenodd" d="M0 17.5C0 7.835 7.69955 0 17.1974 0C26.6954 0 34.3949 7.835 34.3949 17.5C34.3949 27.165 26.6954 35 17.1974 35C7.69955 35 0 27.165 0 17.5ZM23.6655 25.9904C24.0697 25.9904 24.4632 25.7781 24.6819 25.3973C25.0096 24.8268 24.8207 24.0938 24.2599 23.7604C22.6641 22.8114 20.8424 22.1347 18.8454 21.7492C17.2687 21.4448 15.5789 21.3204 13.8237 21.3793C10.8438 21.4793 8.70085 22.0716 8.6111 22.0967C7.98545 22.2721 7.61838 22.93 7.79001 23.5668C7.96173 24.2037 8.6086 24.5785 9.23457 24.4045C9.25435 24.3989 11.2457 23.8535 13.9612 23.7694C16.4126 23.6935 19.9828 23.9889 23.0732 25.8268C23.2598 25.9377 23.4639 25.9904 23.6655 25.9904ZM25.6643 21.4791C26.1431 21.4791 26.6093 21.2276 26.8683 20.7766C27.2565 20.1007 27.0327 19.2326 26.3684 18.8376C24.4781 17.7135 22.3203 16.912 19.9548 16.4553C18.0872 16.0948 16.0857 15.9474 14.0064 16.0171C10.4766 16.1356 7.93832 16.8372 7.832 16.867C7.09094 17.0748 6.65607 17.8539 6.85939 18.6084C7.06279 19.3628 7.82918 19.8064 8.57048 19.6006C8.59388 19.5941 10.9527 18.9479 14.1693 18.8483C17.073 18.7585 21.3021 19.1082 24.9627 21.2852C25.1837 21.4167 25.4256 21.4791 25.6643 21.4791ZM27.3517 16.3374C27.6228 16.4986 27.9194 16.5752 28.2123 16.5752C28.7996 16.5752 29.3714 16.2668 29.6891 15.7135C30.1652 14.8844 29.8907 13.8196 29.076 13.3351C26.7574 11.9562 24.1106 10.9731 21.209 10.413C18.9182 9.9708 16.4632 9.79009 13.9126 9.87553C9.58298 10.0208 6.46948 10.8814 6.3391 10.918C5.42931 11.173 4.89495 12.1302 5.14564 13.056C5.39626 13.9818 6.33685 14.5256 7.24673 14.2705C7.35973 14.2387 18.6489 11.1618 27.3517 16.3374Z"/>
</mask>
<path d="M24.6819 25.3973L25.4045 25.8124L25.4046 25.8124L24.6819 25.3973ZM23.6655 25.9904L23.6655 26.8238L23.6656 26.8238L23.6655 25.9904ZM24.2599 23.7604L23.834 24.4767L23.8341 24.4767L24.2599 23.7604ZM18.8454 21.7492L18.6874 22.5674L18.6874 22.5674L18.8454 21.7492ZM13.8237 21.3793L13.8516 22.2122L13.8516 22.2122L13.8237 21.3793ZM8.6111 22.0967L8.38646 21.2942L8.38616 21.2943L8.6111 22.0967ZM7.79001 23.5668L6.98539 23.7836L6.98541 23.7837L7.79001 23.5668ZM9.23457 24.4045L9.45775 25.2074L9.46015 25.2067L9.23457 24.4045ZM13.9612 23.7694L13.9354 22.9365L13.9354 22.9365L13.9612 23.7694ZM23.0732 25.8268L22.6473 26.543L22.6475 26.5431L23.0732 25.8268ZM26.8683 20.7766L26.1457 20.3615L26.1456 20.3616L26.8683 20.7766ZM25.6643 21.4791L25.6643 22.3125L25.6644 22.3125L25.6643 21.4791ZM26.3684 18.8376L25.9425 19.5538L25.9425 19.5539L26.3684 18.8376ZM19.9548 16.4553L20.1128 15.6371L20.1128 15.6371L19.9548 16.4553ZM14.0064 16.0171L13.9785 15.1843L13.9785 15.1843L14.0064 16.0171ZM7.832 16.867L7.60717 16.0646L7.607 16.0646L7.832 16.867ZM6.85939 18.6084L6.05476 18.8252L6.05479 18.8253L6.85939 18.6084ZM8.57048 19.6006L8.79343 20.4036L8.79501 20.4031L8.57048 19.6006ZM14.1693 18.8483L14.1436 18.0154L14.1436 18.0154L14.1693 18.8483ZM24.9627 21.2852L24.5367 22.0015L24.5367 22.0015L24.9627 21.2852ZM27.3517 16.3374L26.9258 17.0536L26.9258 17.0536L27.3517 16.3374ZM29.6891 15.7135L28.9664 15.2985L28.9664 15.2985L29.6891 15.7135ZM29.076 13.3351L28.65 14.0513L28.65 14.0513L29.076 13.3351ZM21.209 10.413L21.3669 9.59476L21.3669 9.59476L21.209 10.413ZM13.9126 9.87553L13.8847 9.04267L13.8847 9.04267L13.9126 9.87553ZM6.3391 10.918L6.56402 11.7204L6.56425 11.7203L6.3391 10.918ZM5.14564 13.056L5.95003 12.8383L5.95001 12.8382L5.14564 13.056ZM7.24673 14.2705L7.47169 15.0729L7.47218 15.0727L7.24673 14.2705ZM17.1974 -0.833333C7.22567 -0.833333 -0.833333 7.38853 -0.833333 17.5H0.833333C0.833333 8.28148 8.17343 0.833333 17.1974 0.833333V-0.833333ZM35.2282 17.5C35.2282 7.38853 27.1692 -0.833333 17.1974 -0.833333V0.833333C26.2215 0.833333 33.5616 8.28148 33.5616 17.5H35.2282ZM17.1974 35.8333C27.1692 35.8333 35.2282 27.6115 35.2282 17.5H33.5616C33.5616 26.7185 26.2215 34.1667 17.1974 34.1667V35.8333ZM-0.833333 17.5C-0.833333 27.6115 7.22567 35.8333 17.1974 35.8333V34.1667C8.17343 34.1667 0.833333 26.7185 0.833333 17.5H-0.833333ZM23.9593 24.9823C23.8929 25.0979 23.7787 25.1571 23.6653 25.1571L23.6656 26.8238C24.3607 26.8236 25.0336 26.4583 25.4045 25.8124L23.9593 24.9823ZM23.8341 24.4767C23.9978 24.574 24.0635 24.8008 23.9593 24.9823L25.4046 25.8124C25.9557 24.8528 25.6437 23.6136 24.6858 23.0441L23.8341 24.4767ZM18.6874 22.5674C20.5989 22.9364 22.3284 23.5813 23.834 24.4767L24.6859 23.0442C22.9997 22.0414 21.0859 21.333 19.0033 20.931L18.6874 22.5674ZM13.8516 22.2122C15.5503 22.1551 17.1774 22.2759 18.6874 22.5674L19.0033 20.931C17.36 20.6138 15.6075 20.4856 13.7957 20.5464L13.8516 22.2122ZM8.83573 22.8992C8.88849 22.8844 10.9615 22.3091 13.8516 22.2122L13.7957 20.5464C10.726 20.6494 8.51321 21.2587 8.38646 21.2942L8.83573 22.8992ZM8.59464 23.3499C8.53871 23.1424 8.66219 22.9478 8.83603 22.8991L8.38616 21.2943C7.30871 21.5964 6.69805 22.7175 6.98539 23.7836L8.59464 23.3499ZM9.01139 23.6016C8.84228 23.6486 8.64885 23.551 8.59462 23.3498L6.98541 23.7837C7.2746 24.8563 8.37492 25.5084 9.45775 25.2074L9.01139 23.6016ZM13.9354 22.9365C11.1305 23.0233 9.06877 23.5855 9.00899 23.6023L9.46015 25.2067C9.43994 25.2124 11.361 24.6836 13.987 24.6023L13.9354 22.9365ZM23.4992 25.1105C20.2116 23.1554 16.4558 22.8585 13.9354 22.9365L13.987 24.6023C16.3695 24.5286 19.754 24.8224 22.6473 26.543L23.4992 25.1105ZM23.6655 25.1571C23.6106 25.1571 23.5541 25.1431 23.499 25.1104L22.6475 26.5431C22.9655 26.7322 23.3172 26.8238 23.6655 26.8238V25.1571ZM26.1456 20.3616C26.0389 20.5474 25.8522 20.6458 25.6641 20.6458L25.6644 22.3125C26.434 22.3123 27.1796 21.9079 27.5909 21.1915L26.1456 20.3616ZM25.9425 19.5539C26.2098 19.7128 26.3104 20.0748 26.1457 20.3615L27.5909 21.1917C28.2026 20.1267 27.8557 18.7523 26.7943 18.1213L25.9425 19.5539ZM19.7968 17.2736C22.0768 17.7137 24.1425 18.4834 25.9425 19.5538L26.7943 18.1213C24.8138 16.9435 22.5638 16.1103 20.1128 15.6371L19.7968 17.2736ZM14.0343 16.85C16.0571 16.7822 17.9959 16.9259 19.7969 17.2736L20.1128 15.6371C18.1785 15.2637 16.1143 15.1127 13.9785 15.1843L14.0343 16.85ZM8.05683 17.6694C8.12595 17.6501 10.5943 16.9654 14.0343 16.85L13.9785 15.1843C10.3589 15.3057 7.75069 16.0243 7.60717 16.0646L8.05683 17.6694ZM7.66401 18.3915C7.57641 18.0665 7.7676 17.7505 8.05699 17.6694L7.607 16.0646C6.41428 16.3991 5.73573 17.6414 6.05476 18.8252L7.66401 18.3915ZM8.34753 18.7977C8.0626 18.8768 7.74982 18.7098 7.66399 18.3914L6.05479 18.8253C6.37576 20.0158 7.59576 20.7361 8.79343 20.4036L8.34753 18.7977ZM14.1436 18.0154C10.8373 18.1178 8.40817 18.7807 8.34595 18.7981L8.79501 20.4031C8.77959 20.4074 11.0682 19.7781 14.1951 19.6812L14.1436 18.0154ZM25.3887 20.569C21.5309 18.2748 17.1161 17.9235 14.1436 18.0154L14.1951 19.6812C17.0299 19.5936 21.0733 19.9417 24.5367 22.0015L25.3887 20.569ZM25.6643 20.6458C25.5721 20.6458 25.4779 20.6221 25.3886 20.569L24.5367 22.0015C24.8895 22.2113 25.279 22.3125 25.6643 22.3125V20.6458ZM28.2123 15.7419C28.066 15.7419 27.917 15.704 27.7776 15.6211L26.9258 17.0536C27.3286 17.2932 27.7729 17.4086 28.2123 17.4086V15.7419ZM28.9664 15.2985C28.801 15.5866 28.5087 15.7419 28.2123 15.7419V17.4086C29.0906 17.4086 29.9418 16.9469 30.4117 16.1285L28.9664 15.2985ZM28.65 14.0513C29.0678 14.2998 29.2191 14.8586 28.9664 15.2985L30.4117 16.1285C31.1113 14.9103 30.7136 13.3394 29.5019 12.6188L28.65 14.0513ZM21.051 11.2312C23.8671 11.7748 26.4218 12.7262 28.65 14.0513L29.5019 12.6188C27.0931 11.1863 24.354 10.1714 21.3669 9.59476L21.051 11.2312ZM13.9405 10.7084C16.4346 10.6248 18.8269 10.8019 21.051 11.2312L21.3669 9.59476C19.0095 9.1397 16.4918 8.95533 13.8847 9.04267L13.9405 10.7084ZM6.56425 11.7203C6.65706 11.6943 9.70061 10.8507 13.9406 10.7084L13.8847 9.04267C9.46535 9.19095 6.28189 10.0685 6.11396 10.1156L6.56425 11.7203ZM5.95001 12.8382C5.81582 12.3426 6.10573 11.8488 6.56402 11.7204L6.11419 10.1156C4.75289 10.4971 3.97408 11.9178 4.34128 13.2738L5.95001 12.8382ZM7.02176 13.4681C6.56933 13.5949 6.08275 13.3286 5.95003 12.8383L4.34126 13.2738C4.70976 14.635 6.10438 15.4562 7.47169 15.0729L7.02176 13.4681ZM27.7777 15.6211C23.2342 12.9192 18.0547 12.3895 14.0512 12.5183C10.0389 12.6474 7.11869 13.4408 7.02128 13.4682L7.47218 15.0727C7.47134 15.073 7.64677 15.0247 7.97213 14.9502C8.29601 14.876 8.76613 14.7764 9.35579 14.673C10.5361 14.4662 12.1899 14.2457 14.1048 14.1841C17.9499 14.0604 22.7664 14.5801 26.9258 17.0536L27.7777 15.6211Z" fill="#333333" mask="url(#path-1-inside-1)"/>
</svg>
