<svg width="35" height="35" viewBox="0 0 35 35" fill="none" xmlns="http://www.w3.org/2000/svg">
<g clip-path="url(#clip0)">
<mask id="path-1-inside-1" fill="white">
<path d="M34.4529 6.88681C33.6886 7.23164 32.8953 7.50368 32.0813 7.70063C32.9783 6.8333 33.6527 5.74846 34.0331 4.53757C34.1417 4.19189 33.7728 3.89296 33.466 4.07805C32.3336 4.76157 31.1138 5.27434 29.8404 5.60228C29.7665 5.62131 29.6903 5.63095 29.6138 5.63095C29.3819 5.63095 29.1564 5.54331 28.979 5.38425C27.6242 4.16919 25.8817 3.5 24.0726 3.5C23.2898 3.5 22.4994 3.62416 21.7234 3.86907C19.319 4.62794 17.4638 6.64616 16.8818 9.1362C16.6634 10.0702 16.6043 11.005 16.7059 11.9147C16.7176 12.0192 16.669 12.0922 16.6391 12.1264C16.5865 12.1864 16.512 12.2208 16.4345 12.2208C16.4259 12.2208 16.417 12.2203 16.4082 12.2195C11.1451 11.7219 6.39906 9.14166 3.04431 4.95417C2.87323 4.74058 2.54518 4.76678 2.40883 5.00477C1.75188 6.15166 1.40471 7.46341 1.40471 8.79819C1.40471 10.8438 2.21235 12.7716 3.61521 14.1769C3.02527 14.0346 2.45428 13.8104 1.92387 13.5107C1.66727 13.3656 1.35154 13.552 1.34794 13.8507C1.31121 16.8896 3.05965 19.5937 5.67888 20.8113C5.62614 20.8126 5.57339 20.8132 5.52056 20.8132C5.10537 20.8132 4.68499 20.7724 4.27124 20.6919C3.98226 20.6358 3.73949 20.9147 3.82922 21.1998C4.67937 23.9007 6.96468 25.8915 9.69947 26.3436C7.42976 27.894 4.78663 28.7118 2.03566 28.7118L1.17804 28.7113C0.913801 28.7113 0.690319 28.8866 0.622981 29.147C0.556649 29.4035 0.67883 29.6741 0.904158 29.8075C4.00406 31.6433 7.53995 32.6135 11.1311 32.6135C14.2745 32.6135 17.2149 31.9787 19.8707 30.7269C22.3054 29.5792 24.4569 27.9387 26.2653 25.8508C27.9501 23.9059 29.2675 21.6607 30.1809 19.1777C31.0516 16.8108 31.5118 14.2852 31.5118 11.874V11.7592C31.5117 11.372 31.6838 11.0077 31.984 10.7598C33.1232 9.81853 34.1152 8.71056 34.9324 7.46665C35.1482 7.1382 34.8079 6.72655 34.4529 6.88681Z"/>
</mask>
<path d="M34.4529 6.88681C33.6886 7.23164 32.8953 7.50368 32.0813 7.70063C32.9783 6.8333 33.6527 5.74846 34.0331 4.53757C34.1417 4.19189 33.7728 3.89296 33.466 4.07805C32.3336 4.76157 31.1138 5.27434 29.8404 5.60228C29.7665 5.62131 29.6903 5.63095 29.6138 5.63095C29.3819 5.63095 29.1564 5.54331 28.979 5.38425C27.6242 4.16919 25.8817 3.5 24.0726 3.5C23.2898 3.5 22.4994 3.62416 21.7234 3.86907C19.319 4.62794 17.4638 6.64616 16.8818 9.1362C16.6634 10.0702 16.6043 11.005 16.7059 11.9147C16.7176 12.0192 16.669 12.0922 16.6391 12.1264C16.5865 12.1864 16.512 12.2208 16.4345 12.2208C16.4259 12.2208 16.417 12.2203 16.4082 12.2195C11.1451 11.7219 6.39906 9.14166 3.04431 4.95417C2.87323 4.74058 2.54518 4.76678 2.40883 5.00477C1.75188 6.15166 1.40471 7.46341 1.40471 8.79819C1.40471 10.8438 2.21235 12.7716 3.61521 14.1769C3.02527 14.0346 2.45428 13.8104 1.92387 13.5107C1.66727 13.3656 1.35154 13.552 1.34794 13.8507C1.31121 16.8896 3.05965 19.5937 5.67888 20.8113C5.62614 20.8126 5.57339 20.8132 5.52056 20.8132C5.10537 20.8132 4.68499 20.7724 4.27124 20.6919C3.98226 20.6358 3.73949 20.9147 3.82922 21.1998C4.67937 23.9007 6.96468 25.8915 9.69947 26.3436C7.42976 27.894 4.78663 28.7118 2.03566 28.7118L1.17804 28.7113C0.913801 28.7113 0.690319 28.8866 0.622981 29.147C0.556649 29.4035 0.67883 29.6741 0.904158 29.8075C4.00406 31.6433 7.53995 32.6135 11.1311 32.6135C14.2745 32.6135 17.2149 31.9787 19.8707 30.7269C22.3054 29.5792 24.4569 27.9387 26.2653 25.8508C27.9501 23.9059 29.2675 21.6607 30.1809 19.1777C31.0516 16.8108 31.5118 14.2852 31.5118 11.874V11.7592C31.5117 11.372 31.6838 11.0077 31.984 10.7598C33.1232 9.81853 34.1152 8.71056 34.9324 7.46665C35.1482 7.1382 34.8079 6.72655 34.4529 6.88681Z" stroke="#333333" stroke-width="1.66667" mask="url(#path-1-inside-1)"/>
</g>
<defs>
<clipPath id="clip0">
<rect width="34.3949" height="35" fill="white" transform="translate(0.60498)"/>
</clipPath>
</defs>
</svg>
