<svg width="54" height="54" viewBox="0 0 54 54" fill="none" xmlns="http://www.w3.org/2000/svg">
<path d="M49.2843 12.3545C48.2845 12.7978 47.2466 13.1476 46.1816 13.4008C47.3551 12.2857 48.2374 10.8909 48.7352 9.33402C48.8773 8.88957 48.3945 8.50524 47.9932 8.74321C46.5116 9.62202 44.9157 10.2813 43.2497 10.7029C43.153 10.7274 43.0533 10.7398 42.9532 10.7398C42.6497 10.7398 42.3547 10.6271 42.1227 10.4226C40.3501 8.86038 38.0704 8 35.7035 8C34.6793 8 33.6452 8.15963 32.6299 8.47452C29.4842 9.45021 27.057 12.0451 26.2955 15.2465C26.0098 16.4474 25.9324 17.6493 26.0654 18.8189C26.0806 18.9533 26.0171 19.0471 25.9779 19.0911C25.9092 19.1682 25.8116 19.2124 25.7104 19.2124C25.6991 19.2124 25.6874 19.2118 25.6759 19.2108C18.79 18.571 12.5806 15.2536 8.19145 9.86965C7.96763 9.59503 7.53843 9.62871 7.36003 9.93471C6.50053 11.4093 6.04631 13.0958 6.04631 14.812C6.04631 17.442 7.10297 19.9206 8.93839 21.7275C8.16655 21.5445 7.4195 21.2563 6.72555 20.8708C6.38983 20.6843 5.97675 20.9241 5.97203 21.3081C5.92398 25.2152 8.21153 28.6919 11.6384 30.2574C11.5693 30.259 11.5003 30.2598 11.4312 30.2598C10.888 30.2598 10.338 30.2073 9.79669 30.1039C9.41861 30.0317 9.10099 30.3903 9.21838 30.7569C10.3307 34.2295 13.3206 36.7891 16.8986 37.3703C13.9291 39.3637 10.471 40.4152 6.8718 40.4152L5.74975 40.4145C5.40404 40.4145 5.11165 40.6399 5.02355 40.9747C4.93677 41.3045 5.09662 41.6524 5.39142 41.8239C9.44713 44.1842 14.0733 45.4317 18.7717 45.4317C22.8843 45.4317 26.7314 44.6155 30.206 43.006C33.3914 41.5304 36.2062 39.4212 38.5723 36.7368C40.7765 34.2362 42.5001 31.3495 43.6951 28.157C44.8343 25.1138 45.4364 21.8667 45.4364 18.7666V18.619C45.4363 18.1212 45.6614 17.6528 46.0542 17.334C47.5447 16.1238 48.8426 14.6993 49.9118 13.1C50.1941 12.6777 49.7488 12.1484 49.2843 12.3545Z" fill="#333333"/>
</svg>
