<svg width="54" height="54" viewBox="0 0 54 54" fill="none" xmlns="http://www.w3.org/2000/svg">
<path fill-rule="evenodd" clip-rule="evenodd" d="M12.4896 42.8471H42.8678C47.2266 42.9309 48.5122 39.9579 49.3774 35.7951C50.2426 31.6322 50.1717 24.1336 49.3774 20.0635C48.5831 15.9934 47.5388 13.172 43.9527 12.469C40.3666 11.766 14.6595 11.9265 11.4047 12.469C8.14991 13.0114 5.85345 14.9562 5.43756 20.0635C4.83904 26.5043 4.86945 29.9336 5.43756 35.7951C6.05517 40.9674 7.53024 42.5904 12.4896 42.8471ZM22.3009 34.7784L35.3782 27.7316L22.3009 20.6847V34.7784Z" fill="#333333"/>
<path d="M42.8678 42.8471L42.8774 42.3471H42.8678V42.8471ZM12.4896 42.8471L12.4638 43.3465L12.4767 43.3471H12.4896V42.8471ZM49.3774 35.7951L48.8879 35.6933L48.8879 35.6933L49.3774 35.7951ZM49.3774 20.0635L49.8681 19.9677L49.3774 20.0635ZM43.9527 12.469L44.0489 11.9783L43.9527 12.469ZM11.4047 12.469L11.4869 12.9622L11.4047 12.469ZM5.43756 20.0635L5.93545 20.1098L5.93591 20.1041L5.43756 20.0635ZM5.43756 35.7951L4.93977 35.8433L4.94109 35.8543L5.43756 35.7951ZM35.3782 27.7316L35.6154 28.1717L36.4322 27.7316L35.6154 27.2914L35.3782 27.7316ZM22.3009 34.7784H21.8009V35.6158L22.538 35.2186L22.3009 34.7784ZM22.3009 20.6847L22.538 20.2445L21.8009 19.8473V20.6847H22.3009ZM42.8678 42.3471H12.4896V43.3471H42.8678V42.3471ZM48.8879 35.6933C48.4563 37.7698 47.9357 39.4521 47.038 40.6066C46.1725 41.7198 44.9199 42.3865 42.8774 42.3472L42.8582 43.347C45.1745 43.3915 46.7441 42.6136 47.8274 41.2205C48.8785 39.8687 49.4333 37.9832 49.8669 35.8968L48.8879 35.6933ZM48.8867 20.1593C49.2755 22.1516 49.4909 25.0092 49.4997 27.896C49.5085 30.784 49.3104 33.6604 48.8879 35.6933L49.8669 35.8968C50.3096 33.7669 50.5086 30.8125 50.4997 27.893C50.4908 24.9722 50.2736 22.0455 49.8681 19.9677L48.8867 20.1593ZM43.8565 12.9596C45.5113 13.284 46.5508 14.0816 47.2872 15.2674C48.0435 16.485 48.4902 18.1278 48.8867 20.1593L49.8681 19.9677C49.4703 17.9291 48.9977 16.1261 48.1367 14.7398C47.256 13.3216 45.9803 12.3569 44.0489 11.9783L43.8565 12.9596ZM11.4869 12.9622C12.2586 12.8336 14.4348 12.7218 17.3729 12.6411C20.2916 12.5609 23.918 12.512 27.5558 12.5019C31.1939 12.4919 34.8402 12.5208 37.7992 12.5959C40.7806 12.6717 43.0108 12.7938 43.8565 12.9596L44.0489 11.9783C43.1016 11.7926 40.7736 11.6712 37.8246 11.5963C34.8532 11.5208 31.1969 11.4919 27.5531 11.5019C23.9091 11.512 20.2742 11.561 17.3454 11.6415C14.4359 11.7214 12.1782 11.8332 11.3225 11.9758L11.4869 12.9622ZM5.93591 20.1041C6.13859 17.6151 6.79408 15.9673 7.73446 14.8818C8.66999 13.8018 9.93784 13.2203 11.4869 12.9622L11.3225 11.9758C9.61677 12.26 8.109 12.9222 6.97862 14.227C5.85311 15.5263 5.15242 17.4046 4.93921 20.0229L5.93591 20.1041ZM5.93523 35.7468C5.37019 29.9171 5.33979 26.5194 5.93541 20.1098L4.9397 20.0172C4.33829 26.4892 4.36872 29.9502 4.93989 35.8433L5.93523 35.7468ZM12.5155 42.3478C10.0669 42.2211 8.62124 41.7593 7.69201 40.814C6.75171 39.8574 6.24123 38.3085 5.93403 35.7358L4.94109 35.8543C5.2515 38.454 5.78736 40.3028 6.97885 41.515C8.1814 42.7384 9.95293 43.2165 12.4638 43.3465L12.5155 42.3478ZM35.141 27.2914L22.0637 34.3382L22.538 35.2186L35.6154 28.1717L35.141 27.2914ZM22.0637 21.1249L35.141 28.1717L35.6154 27.2914L22.538 20.2445L22.0637 21.1249ZM22.8009 34.7784V20.6847H21.8009V34.7784H22.8009Z" fill="#333333"/>
</svg>
