<svg width="51" height="37" viewBox="0 0 51 37" fill="none" xmlns="http://www.w3.org/2000/svg">
<path d="M48.5338 6.46536C47.9755 4.31399 46.3304 2.61988 44.2414 2.04492C40.4558 1 25.2742 1 25.2742 1C25.2742 1 10.0926 1 6.30667 2.04492C4.21771 2.61988 2.57258 4.31399 2.01428 6.46536C1 10.3645 1 18.5 1 18.5C1 18.5 1 26.6352 2.01428 30.5346C2.57258 32.686 4.21771 34.3801 6.30667 34.9554C10.0926 36 25.2742 36 25.2742 36C25.2742 36 40.4558 36 44.2414 34.9554C46.3304 34.3801 47.9755 32.686 48.5338 30.5346C49.5484 26.6352 49.5484 18.5 49.5484 18.5C49.5484 18.5 49.5484 10.3645 48.5338 6.46536" stroke="#333333"/>
<path fill-rule="evenodd" clip-rule="evenodd" d="M21.3228 26.9678V11.1614L32.6131 19.0649L21.3228 26.9678Z" stroke="#333333"/>
</svg>
